<svg width="38" height="38" viewBox="0 0 38 38" fill="none" xmlns="http://www.w3.org/2000/svg">
<g id="bx:bx-map">
<path id="Vector" d="M24.4705 13.8252C23.0011 13.1625 21.4259 12.6727 19.7787 12.3941C19.7641 12.3913 19.7489 12.3931 19.7353 12.3993C19.7217 12.4055 19.7104 12.4158 19.7029 12.4287C19.5012 12.7831 19.2764 13.2451 19.1189 13.61C17.3719 13.349 15.5959 13.349 13.8489 13.61C13.6734 13.2055 13.4756 12.8112 13.2563 12.4287C13.2489 12.4156 13.2376 12.4051 13.224 12.3986C13.2105 12.3921 13.1953 12.3899 13.1804 12.3922C11.5342 12.6707 9.95905 13.1605 8.48859 13.8242C8.47594 13.8295 8.46522 13.8385 8.45786 13.8501C5.46893 18.244 4.64966 22.5294 5.05209 26.761C5.05321 26.7714 5.05643 26.7814 5.06155 26.7905C5.06666 26.7996 5.07358 26.8075 5.08186 26.8139C6.82642 28.0839 8.77225 29.0515 10.8379 29.6759C10.8523 29.6803 10.8677 29.6803 10.8821 29.6759C10.8965 29.6714 10.9092 29.6627 10.9185 29.6509C11.3623 29.0555 11.758 28.4264 12.0961 27.7656C12.1162 27.7272 12.097 27.6811 12.0567 27.6657C11.4362 27.4321 10.8351 27.1502 10.2587 26.8225C10.2484 26.8166 10.2396 26.8082 10.2333 26.7981C10.227 26.788 10.2233 26.7764 10.2225 26.7645C10.2218 26.7526 10.224 26.7407 10.2289 26.7299C10.2339 26.7191 10.2415 26.7096 10.251 26.7024C10.372 26.6131 10.4931 26.52 10.6083 26.4268C10.6187 26.4184 10.6312 26.4131 10.6444 26.4114C10.6576 26.4097 10.6711 26.4117 10.6832 26.4172C14.4549 28.1114 18.5397 28.1114 22.2673 26.4172C22.2795 26.4114 22.293 26.4091 22.3064 26.4106C22.3199 26.4122 22.3326 26.4174 22.3431 26.4258C22.4584 26.52 22.5785 26.6131 22.7004 26.7024C22.71 26.7095 22.7178 26.7188 22.7229 26.7295C22.728 26.7403 22.7304 26.7521 22.7298 26.764C22.7293 26.7759 22.7257 26.7875 22.7196 26.7977C22.7135 26.8079 22.7049 26.8164 22.6947 26.8225C22.1203 27.1529 21.5229 27.4324 20.8957 27.6648C20.8861 27.6683 20.8773 27.6738 20.87 27.681C20.8627 27.6881 20.8569 27.6968 20.8532 27.7063C20.8495 27.7158 20.8478 27.7261 20.8484 27.7363C20.8489 27.7465 20.8516 27.7565 20.8564 27.7656C21.2021 28.4254 21.5978 29.0536 22.0329 29.65C22.042 29.6622 22.0546 29.6714 22.069 29.6762C22.0834 29.681 22.099 29.6812 22.1136 29.6769C24.1827 29.0542 26.1318 28.0862 27.8782 26.8139C27.8868 26.8079 27.8939 26.8002 27.8992 26.7912C27.9045 26.7823 27.9078 26.7723 27.909 26.762C28.3892 21.8696 27.1041 17.6188 24.5003 13.852C24.4939 13.8398 24.4834 13.8303 24.4705 13.8252ZM12.6598 24.1842C11.5246 24.1842 10.5881 23.1575 10.5881 21.8984C10.5881 20.6384 11.5063 19.6126 12.6598 19.6126C13.822 19.6126 14.7498 20.647 14.7315 21.8984C14.7315 23.1585 13.8134 24.1842 12.6598 24.1842ZM20.3195 24.1842C19.1832 24.1842 18.2478 23.1575 18.2478 21.8984C18.2478 20.6384 19.165 19.6126 20.3195 19.6126C21.4816 19.6126 22.4094 20.647 22.3912 21.8984C22.3912 23.1585 21.4826 24.1842 20.3195 24.1842Z" fill="#5865F2"/>
</g>
</svg>
